# xmcd
#
# Track frame offsets:
#	150
#	12644
#	30416
#	45766
#	62635
#	79001
#	94266
#	108753
#	124356
#	146596
#	161991
#	179572
#	200805
#	218762
#	231223
#	254200
#	271978
#	292164
#
# Disc length: 4270 seconds
#
# Revision: 1
# Processed by: cddbd v1.4PL0 Copyright (c) Steve Scherf et al.
# Submitted via: audiograbber 1.82.02
#
DISCID=1310ac12
DTITLE=Various Artist - Rural Aid Appeal Vol 21
DYEAR=1900
DGENRE=Country
TTITLE0=Adam Harvey - Cowboy For A Day
TTITLE1=Sara Storer - Tell These Hands
TTITLE2=Michael Carr - In It Up To Hear
TTITLE3=Carter and Carter - Lead Me home
TTITLE4=Bushwackers - Limejuice Tub
TTITLE5=The Borderes - Saying Sorry
TTITLE6=Adam Kilpatrick - Dreamer
TTITLE7=Sommers Family Band - Take Me Back To My Sweet Sunny South
TTITLE8=Simply Bushed - Gidgea In The Rain
TTITLE9=Anita Thomas - Love Is
TTITLE10=Billy Bridge - Malle Dust
TTITLE11=Kelly Llewellyn - The Place
TTITLE12=Michael King - Some Men (Just Let Go)
TTITLE13=Nicki Gillis - Fall Out Of Love
TTITLE14=John McSweeney - Where Were You When The World Stopped Turning
TTITLE15=Brian Young - The Land Of The Gagudju Man
TTITLE16=Bob Miller - Naked Poets Raymond
TTITLE17=Fiddlers Festival - Musical Priest
EXTD=
EXTT0=
EXTT1=
EXTT2=
EXTT3=
EXTT4=
EXTT5=
EXTT6=
EXTT7=
EXTT8=
EXTT9=
EXTT10=
EXTT11=
EXTT12=
EXTT13=
EXTT14=
EXTT15=
EXTT16=
EXTT17=
PLAYORDER=
